PathFileType	4	(X/Y/Z)	s03c0001.trc
DataRate	CameraRate	NumFrames	NumMarkers	Units	OrigDataRate	OrigDataStartFrame	OrigNumFrames
200	200	6	49	mm	200	1250	2000
Frame#	Time	racr			lacr			c7			jug			rlel			rdr			llel			ldr			s2			lic			ric			lasi			rasi			rpsi			lpsi			rgt			lgt			rth1			rth2			rth3			rth4			rlfc			rmfc			rsh1			rsh2			rsh3			rsh4			rlmal			rmmal			rcal			rtoe			rmt5			rmt1			lth1			lth2			lth4			lth3			llfc			lmfc			lsh1			lsh2			lsh3			lsh4			llmal			lmmal			lcal			ltoe			lmt1			lmt5			
		X1	Y1	Z1	X2	Y2	Z2	X3	Y3	Z3	X4	Y4	Z4	X5	Y5	Z5	X6	Y6	Z6	X7	Y7	Z7	X8	Y8	Z8	X9	Y9	Z9	X10	Y10	Z10	X11	Y11	Z11	X12	Y12	Z12	X13	Y13	Z13	X14	Y14	Z14	X15	Y15	Z15	X16	Y16	Z16	X17	Y17	Z17	X18	Y18	Z18	X19	Y19	Z19	X20	Y20	Z20	X21	Y21	Z21	X22	Y22	Z22	X23	Y23	Z23	X24	Y24	Z24	X25	Y25	Z25	X26	Y26	Z26	X27	Y27	Z27	X28	Y28	Z28	X29	Y29	Z29	X30	Y30	Z30	X31	Y31	Z31	X32	Y32	Z32	X33	Y33	Z33	X34	Y34	Z34	X35	Y35	Z35	X36	Y36	Z36	X37	Y37	Z37	X38	Y38	Z38	X39	Y39	Z39	X40	Y40	Z40	X41	Y41	Z41	X42	Y42	Z42	X43	Y43	Z43	X44	Y44	Z44	X45	Y45	Z45	X46	Y46	Z46	X47	Y47	Z47	X48	Y48	Z48	X49	Y49	Z49	
1250	6.2500	263.603271	1572.963501	581.331177	259.235840	1588.414551	200.365417	197.375366	1607.930542	393.719666	364.648102	1556.509766	392.487305	189.125641	1302.040161	691.428345	283.280945	1123.569702	888.056824	185.949142	1316.939575	94.925117	268.060211	1126.513062	-110.471764	160.754654	1067.699829	373.449127	297.085266	1165.591675	194.073441	288.439209	1151.442383	565.632202	358.998840	1103.998901	236.755310	358.885468	1100.251953	519.511841	162.182144	1108.260986	422.871735	166.398239	1116.696289	340.025940	270.809753	1008.973816	560.660767	283.962250	1015.628357	186.835785	283.674255	870.415466	575.956970	314.294373	786.851868	570.231628	304.149780	703.638306	555.664246	350.328827	792.295898	565.595520	298.102203	577.447937	524.026672	329.399475	556.791260	417.732788	243.376801	412.881104	552.161011	254.422241	323.733276	547.779541	218.984924	243.410049	542.065308	288.611877	320.319611	530.320618	208.974228	104.291336	530.918457	248.858047	121.915382	449.944672	165.252701	56.166706	483.301758	468.586395	90.818344	503.187195	353.546600	43.333664	563.390320	378.826477	80.841705	453.913818	295.280701	865.963257	174.120392	318.594208	782.807129	181.597275	354.619812	784.720276	183.626770	297.003693	698.265076	195.436523	310.707184	577.182678	220.773148	332.182617	559.241028	333.935760	251.615860	413.546326	184.560303	264.226471	329.353760	192.842850	229.454880	244.746536	196.330215	298.498749	325.277893	211.097153	220.847427	110.662529	205.991989	259.069244	124.948845	292.713318	172.566193	55.110962	258.010773	479.535065	92.415695	234.358902	389.195679	73.282898	285.976837	358.187897	50.561188	172.364594	
1251	6.2550	263.572357	1572.959839	581.334778	259.204041	1588.409058	200.378281	197.325302	1607.928223	393.762146	364.613647	1556.504761	392.499786	189.080292	1302.035400	691.413879	283.232452	1123.554077	888.050720	185.918915	1316.939941	94.942795	268.057983	1126.496338	-110.464447	160.735260	1067.709351	373.465210	297.083923	1165.582764	194.085052	288.398499	1151.426270	565.639404	358.996338	1104.001465	236.775024	358.861816	1100.258179	519.532654	162.158051	1108.259155	422.870758	166.374039	1116.700073	340.043823	270.778595	1008.971680	560.674316	283.945435	1015.619019	186.840500	283.644836	870.422119	575.983093	314.284576	786.846863	570.232361	304.133881	703.648987	555.667847	350.316315	792.307800	565.591125	298.074280	577.445251	524.022583	329.394928	556.797607	417.743469	243.369934	412.875641	552.156555	254.403931	323.715851	547.793945	218.990143	243.404282	542.053528	288.589172	320.309174	530.322083	208.969223	104.283699	530.922974	248.835449	121.898880	449.938477	165.280563	56.150871	483.304626	468.558472	90.835793	503.199829	353.556793	43.352592	563.389771	378.809784	80.840034	453.922424	295.283264	865.969971	174.130829	318.572784	782.795410	181.587097	354.617218	784.729065	183.641006	297.002533	698.272705	195.442780	310.882782	577.117371	220.418182	332.235535	559.256775	333.959961	251.608047	413.542084	184.574448	264.220337	329.351135	192.835907	229.432343	244.741364	196.323120	298.516205	325.279297	211.113602	220.860962	110.653503	205.981094	259.060883	124.963287	292.717651	172.563904	55.087597	258.022186	479.523590	92.408325	234.360291	389.185883	73.276283	285.980652	358.160858	50.568630	172.354630	
1252	6.2600	263.536316	1572.947021	581.356140	259.168213	1588.393799	200.397217	197.282440	1607.943115	393.770081	364.566528	1556.498535	392.516479	189.021988	1302.049072	691.431702	283.185486	1123.541138	888.049988	185.887268	1316.936646	94.961647	268.057556	1126.496460	-110.431839	160.703766	1067.697388	373.467163	297.057007	1165.581665	194.088120	288.371002	1151.435791	565.633362	358.982056	1103.999268	236.777985	358.852692	1100.244019	519.524902	162.136887	1108.258301	422.887115	166.356049	1116.696167	340.051971	270.758179	1008.978333	560.676575	283.935791	1015.629395	186.834671	283.623505	870.416626	575.973694	314.244629	786.844604	570.225952	304.093384	703.650757	555.668640	350.287140	792.294983	565.598328	298.061676	577.446411	524.024292	329.396790	556.809387	417.748596	243.339508	412.890594	552.151306	254.391159	323.722534	547.773682	218.995392	243.407211	542.038574	288.580231	320.324646	530.321350	208.970139	104.288254	530.911316	248.861618	121.920753	449.928986	165.252731	56.166737	483.301758	468.581970	90.838860	503.195190	353.544220	43.335487	563.390198	378.810760	80.837349	453.924835	295.272522	865.966064	174.138336	318.570831	782.797791	181.594025	354.606537	784.715332	183.617538	296.980743	698.273499	195.434097	310.868713	577.110596	220.417862	332.162079	559.239807	333.959259	251.605865	413.551941	184.565582	264.207947	329.367554	192.842102	229.421616	244.764328	196.340485	298.499725	325.287567	211.103104	220.881042	110.642387	205.989273	259.053406	124.959648	292.718719	172.571777	55.086647	258.028351	479.568054	92.446487	234.370071	389.198273	73.271202	285.987244	358.207489	50.571850	172.366486	
1253	6.2650	263.509796	1572.934937	581.331543	259.167206	1588.401978	200.385956	197.262329	1607.942871	393.761932	364.554535	1556.503296	392.516968	188.982391	1302.019775	691.420654	283.119537	1123.528320	888.047058	185.869980	1316.930054	94.978752	268.048798	1126.489990	-110.414955	160.672821	1067.705688	373.465820	297.049591	1165.581055	194.118332	288.340485	1151.431274	565.657043	358.947174	1103.992432	236.781235	358.829651	1100.264648	519.535828	162.135727	1108.241211	422.903931	166.349442	1116.682983	340.044250	270.737732	1008.970886	560.674438	283.934509	1015.626404	186.841934	283.600159	870.415710	575.974854	314.226013	786.847290	570.232971	304.075378	703.655273	555.657654	350.276306	792.298706	565.604553	298.025757	577.452332	524.030151	329.381470	556.822266	417.749298	243.328888	412.878265	552.143494	254.385788	323.730255	547.780334	218.980637	243.404266	542.060913	288.569519	320.329468	530.322571	208.956650	104.304062	530.915344	248.877792	121.897202	449.935303	165.280579	56.150898	483.304626	468.559235	90.837097	503.193207	353.568695	43.343941	563.391663	378.823029	80.839752	453.921356	295.260742	865.973145	174.141861	318.553070	782.793823	181.603516	354.590881	784.724243	183.645767	296.978546	698.279785	195.439178	310.655823	577.207947	220.738358	332.145172	559.243591	333.972473	251.601517	413.545502	184.574265	264.217896	329.349243	192.866653	229.417343	244.755966	196.328979	298.502960	325.274292	211.118073	220.860748	110.658600	205.991180	259.053436	124.959641	292.718719	172.566986	55.097454	258.025452	479.554016	92.433784	234.383484	389.188416	73.274185	286.001984	358.198242	50.569023	172.354614	
1254	6.2700	263.473846	1572.933472	581.354309	259.124329	1588.389404	200.393311	197.238068	1607.947144	393.781433	364.522247	1556.508667	392.540985	188.955048	1302.017212	691.414368	283.067291	1123.514893	888.034912	185.860886	1316.929932	94.986923	268.057678	1126.474121	-110.393791	160.672333	1067.697876	373.466095	297.018951	1165.566284	194.120255	288.288696	1151.426270	565.673584	358.946869	1104.004639	236.791840	358.810791	1100.252075	519.548340	162.125595	1108.247559	422.931091	166.330460	1116.694702	340.049255	270.714813	1008.980469	560.688721	283.917725	1015.616760	186.848511	283.572174	870.415833	575.986633	314.194336	786.861755	570.238647	304.053070	703.647034	555.669983	350.245178	792.303772	565.600952	298.013306	577.446411	524.012024	329.342468	556.816284	417.734222	243.310394	412.874420	552.140442	254.377716	323.737061	547.779602	218.967010	243.404129	542.046753	288.549225	320.327240	530.320251	208.958740	104.303467	530.902710	248.844040	121.897903	449.920166	165.252747	56.166763	483.301758	468.581543	90.838669	503.194855	353.576599	43.356133	563.382385	378.817322	80.845322	453.922211	295.245239	865.966675	174.149155	318.529999	782.798950	181.611435	354.568542	784.710938	183.654938	296.967285	698.264771	195.457687	310.644318	577.187805	220.775482	332.139252	559.240417	333.962433	251.602600	413.551270	184.572388	264.215607	329.347351	192.867065	229.419724	244.754059	196.337296	298.487244	325.277405	211.122330	220.858643	110.655846	205.978851	259.070435	124.959702	292.724518	172.567886	55.102802	258.013306	479.542999	92.425362	234.352661	389.185638	73.274475	286.000671	358.198242	50.571232	172.362823	
1255	6.2750	263.425323	1572.881836	581.270386	259.090942	1588.377563	200.401062	197.219635	1608.186157	393.763458	364.481415	1556.498779	392.560883	188.902100	1302.011353	691.414368	283.024139	1123.491821	888.041016	185.833237	1316.930542	94.989937	268.047119	1126.465332	-110.385826	160.641327	1067.693726	373.467773	297.018402	1165.588989	194.127594	288.272003	1151.425293	565.658264	358.928284	1104.001587	236.807251	358.775909	1100.262573	519.560486	162.096024	1108.239014	422.925385	166.315491	1116.686646	340.055359	270.683655	1008.990356	560.691772	283.902649	1015.622925	186.863159	283.551300	870.412537	575.994202	314.180023	786.849670	570.223877	304.030121	703.654175	555.663208	350.217712	792.287842	565.596863	297.988159	577.450562	524.015015	329.341370	556.825745	417.730804	243.303116	412.872131	552.134033	254.366211	323.735046	547.768066	218.967804	243.395615	542.041077	288.556366	320.333801	530.312500	208.973175	104.289925	530.905151	248.857300	121.905319	449.931366	165.298065	56.138573	483.327515	468.559967	90.836868	503.187927	353.570099	43.361736	563.401245	378.811615	80.850807	453.915863	295.234894	865.962952	174.150757	318.528687	782.802979	181.625214	354.569244	784.725098	183.664597	296.942657	698.279114	195.458923	310.645203	577.208435	220.763077	332.159088	559.265381	333.995605	251.581711	413.550934	184.571014	264.200195	329.348938	192.871857	229.412170	244.755447	196.353409	298.481567	325.270477	211.125870	220.862442	110.656441	205.993240	259.079010	124.955040	292.724182	172.581512	55.078793	258.022766	479.557922	92.437050	234.367752	389.195221	73.284523	285.977356	358.196167	50.580757	172.353867	
